<?xml version="1.0" encoding="UTF-8"?><svg xmlns="http://www.w3.org/2000/svg" xmlns:xlink="http://www.w3.org/1999/xlink" version="1.1" id="Layer_1" x="0px" y="0px" viewBox="0 0 64 64" xml:space="preserve"><style type="text/css">.st0{fill:#58595B;} .st1{fill:none;}</style><path class="st0" d="M53.792 30.675c-2.6 0-4.818-.597-6.21-1.55v3.035c0 1.019 2.362 2.438 6.21 2.438 3.846 0 6.208-1.42 6.208-2.438v-3.034c-1.391.952-3.609 1.549-6.208 1.549z" fill="#58595B"/><path class="st0" d="M53.792 36.156c-2.6 0-4.818-.597-6.21-1.55v2.708c0 1.018 2.362 2.438 6.21 2.438 3.846 0 6.208-1.42 6.208-2.438v-2.707c-1.391.952-3.609 1.55-6.208 1.55z" fill="#58595B"/><path class="st0" d="M53.792 29.117c3.846 0 6.208-1.42 6.208-2.438s-2.362-2.438-6.208-2.438c-3.848 0-6.21 1.42-6.21 2.438s2.362 2.438 6.21 2.438z" fill="#58595B"/><path class="st0" d="M29.077 31.325h-.94a4.142 4.142 0 0 0-.701-1.703l.66-.654c.021-.021.021-.042 0-.063l-.898-.893c-.01-.01-.041-.01-.051 0l-.671.665a4.075 4.075 0 0 0-1.703-.706v-.935c0-.02-.021-.041-.042-.041h-1.27c-.02 0-.03.02-.03.041v.935a4.118 4.118 0 0 0-1.714.706l-.66-.665a.065.065 0 0 0-.062 0l-.888.893c-.02.021-.02.042 0 .063l.66.654a4.141 4.141 0 0 0-.701 1.703h-.95c-.02 0-.031.02-.031.041v1.267c0 .021.01.032.03.032h.95c.104.633.352 1.204.702 1.703l-.66.664c-.02.01-.02.042 0 .052l.888.893c.02.01.04.01.061 0l.661-.664a4.12 4.12 0 0 0 1.714.706v.934c0 .021.01.042.03.042h1.27c.02 0 .042-.02.042-.042v-.934a4.077 4.077 0 0 0 1.703-.706l.67.664c.011.01.042.01.052 0l.898-.893c.021-.01.021-.041 0-.052l-.66-.664c.35-.499.598-1.07.702-1.703h.939c.02 0 .041-.01.041-.032v-1.267c0-.02-.02-.041-.041-.041zm-4.975 2.752A2.07 2.07 0 0 1 22.037 32a2.064 2.064 0 1 1 4.129 0 2.077 2.077 0 0 1-2.064 2.077z" fill="#58595B"/><path class="st0" d="M53.788 43.672a2.59 2.59 0 0 0-2.58 2.596c0 1.07.64 1.984 1.548 2.379l.01 8.276-27.632.01v-1.931c2.787-.79 4.83-4.746 6.08-9.938 2.787.986 5.398 1.568 7.535 1.568 2.199 0 3.912-.613 4.83-2.025.61-.924.765-2.077.486-3.417-.558-2.617-2.808-5.877-6.214-9.19 3.406-3.323 5.656-6.573 6.214-9.2.279-1.34.124-2.493-.485-3.417-1.807-2.763-6.7-2.44-12.356-.447-1.249-5.203-3.303-9.16-6.09-9.938l-.01-1.921 27.632-.02v8.286a2.599 2.599 0 0 0-1.548 2.378 2.59 2.59 0 0 0 2.58 2.596 2.59 2.59 0 0 0 2.581-2.596c0-1.07-.63-1.973-1.548-2.378V7.056A2.057 2.057 0 0 0 52.767 5H25.123a2.057 2.057 0 0 0-2.054 2.056v1.942c-2.787.779-4.84 4.735-6.09 9.938-5.656-1.994-10.55-2.316-12.356.447-.609.924-.774 2.077-.485 3.416.547 2.628 2.808 5.878 6.214 9.201-3.406 3.313-5.667 6.573-6.214 9.19-.289 1.34-.124 2.493.485 3.417.92 1.412 2.622 2.025 4.831 2.025 2.137 0 4.738-.582 7.525-1.568 1.25 5.192 3.303 9.149 6.09 9.938v1.931A2.06 2.06 0 0 0 25.123 59h27.644a2.06 2.06 0 0 0 2.054-2.067v-8.286a2.571 2.571 0 0 0 1.548-2.379 2.59 2.59 0 0 0-2.58-2.596zm-15.04-24.248c1.55 0 2.633.374 3.108 1.101.289.446.35 1.07.186 1.848-.465 2.212-2.58 5.162-5.73 8.204a58.152 58.152 0 0 0-3.829-3.125 57.322 57.322 0 0 0-.836-6.49c2.85-1.029 5.295-1.538 7.102-1.538zm-6.13 10.759A48.658 48.658 0 0 1 34.774 32a57.002 57.002 0 0 1-2.158 1.807 52.696 52.696 0 0 0 0-3.624zm-.135 6.365a61.694 61.694 0 0 0 3.83-3.125c3.148 3.042 5.264 5.992 5.729 8.193.165.79.103 1.402-.186 1.849-1.032 1.588-4.924 1.474-10.209-.426a57.63 57.63 0 0 0 .836-6.49zM6.347 43.465c-.289-.447-.35-1.06-.196-1.849.475-2.201 2.591-5.15 5.729-8.193a59.059 59.059 0 0 0 3.84 3.125c.155 2.233.433 4.435.826 6.49-5.285 1.901-9.167 2.015-10.199.427zm9.239-9.658A56.946 56.946 0 0 1 13.428 32a48.617 48.617 0 0 1 2.158-1.817 53.298 53.298 0 0 0 0 3.624zm.134-6.355a55.812 55.812 0 0 0-3.84 3.125c-3.138-3.042-5.254-5.992-5.729-8.204-.155-.778-.093-1.402.196-1.848.475-.727 1.559-1.1 3.107-1.1 1.807 0 4.253.508 7.092 1.536a55.104 55.104 0 0 0-.826 6.49zM29.717 42.28a49.86 49.86 0 0 1-3.468-1.6 77.276 77.276 0 0 0 2.508-1.536 77.819 77.819 0 0 0 1.528-1.018 55.345 55.345 0 0 1-.568 4.154zm.568-16.408c-.506-.353-1.012-.685-1.528-1.028a62.206 62.206 0 0 0-2.508-1.527 50.177 50.177 0 0 1 3.468-1.61 55.65 55.65 0 0 1 .568 4.165zM24.102 10.93c1.889 0 3.912 3.302 5.181 8.743a54.064 54.064 0 0 0-5.181 2.451 53.07 53.07 0 0 0-5.193-2.45c1.28-5.442 3.304-8.744 5.193-8.744zm-5.616 10.779c1.115.467 2.271.997 3.469 1.61-.847.488-1.683.996-2.509 1.526-.516.343-1.032.675-1.527 1.028.144-1.475.33-2.866.567-4.164zM17.62 32c0-1.194.041-2.337.103-3.448a59.374 59.374 0 0 1 2.839-1.952 63.83 63.83 0 0 1 3.54-2.129 65.437 65.437 0 0 1 6.38 4.081c.062 1.111.103 2.254.103 3.448 0 1.184-.041 2.326-.103 3.448a65.437 65.437 0 0 1-6.38 4.08 70.922 70.922 0 0 1-3.54-2.128 59.374 59.374 0 0 1-2.839-1.952A62.19 62.19 0 0 1 17.62 32zm.3 6.127a67.14 67.14 0 0 0 4.026 2.555 47.594 47.594 0 0 1-3.459 1.599 50.521 50.521 0 0 1-.567-4.154zm6.183 14.933c-1.89 0-3.913-3.292-5.193-8.733a55.59 55.59 0 0 0 5.193-2.451 56.69 56.69 0 0 0 5.181 2.45c-1.27 5.442-3.292 8.734-5.181 8.734z" fill="#58595B"/><metadata><rdf:RDF xmlns:rdf="http://www.w3.org/1999/02/22-rdf-syntax-ns#" xmlns:rdfs="http://www.w3.org/2000/01/rdf-schema#" xmlns:dc="http://purl.org/dc/elements/1.1/"><rdf:Description about="https://iconscout.com/legal#licenses" dc:title="data,science,atom,gear,connection,molecule,network" dc:description="data,science,atom,gear,connection,molecule,network" dc:publisher="Iconscout" dc:date="2018-07-13" dc:format="image/svg+xml" dc:language="en"><dc:creator><rdf:Bag><rdf:li>Amin Yusifov</rdf:li></rdf:Bag></dc:creator></rdf:Description></rdf:RDF></metadata></svg>